Patient4_TMGait_0pt6_02_right_19_GRF.mot
version=1
nRows=26
nColumns=19
inDegrees=no
endheader
time	F1x	F1y	F1z	M1x	M1y	M1z	F2x	F2y	F2z	M2x	M2y	M2z	EC1x	EC1y	EC1z	EC2x	EC2y	EC2z
22.73	11.4349	728.3839	62.204	-278.5573	-52.706	698.545	-6.4676	-1.3524	-2.056	0.5775	1.3411	-1.2425	-0.0592	0.0182	-0.0073	-0.0462	0.0165	0.9585
22.7422	11.6113	724.3981	59.1505	-276.6037	-49.6185	693.2315	-4.4751	-0.2315	-1.3318	0.66792	0.91098	0.0032795	-0.0592	0.0182	-0.0073	-0.0462	0.0165	0.9585
22.7544	11.5427	721.3469	56.5296	-274.8594	-46.9056	688.5603	-2.7964	0.77997	-0.73601	0.77056	0.56862	1.118	-0.0592	0.0182	-0.0073	-0.0462	0.0165	0.9585
22.7666	11.2608	719.6369	54.5333	-273.4844	-44.7525	684.9809	-1.5272	1.6087	-0.2931	0.87478	0.32238	2.022	-0.0592	0.0182	-0.0073	-0.0462	0.0165	0.9585
22.7789	10.8794	719.3591	53.2285	-272.5266	-43.2133	682.6113	-0.6691	2.2267	-0.001564	0.97054	0.17324	2.6861	-0.0592	0.0182	-0.0073	-0.0462	0.0165	0.9585
22.7911	10.531	720.3805	52.5611	-271.9521	-42.2207	681.3382	-0.17429	2.6375	0.16511	1.0482	0.10709	3.12	-0.0592	0.0182	-0.0073	-0.0462	0.0165	0.9585
22.8033	10.3423	722.4382	52.4462	-271.6815	-41.6772	680.8936	0.036471	2.8525	0.22924	1.0961	0.1154	3.3339	-0.0592	0.0182	-0.0073	-0.0462	0.0165	0.9585
22.8155	10.4437	725.262	52.7699	-271.6341	-41.4509	680.9861	0.035397	2.863	0.22255	1.0935	0.1815	3.3229	-0.0592	0.0182	-0.0073	-0.0462	0.0165	0.9585
22.8277	10.9514	728.6535	53.4359	-271.7551	-41.4276	681.3885	-0.10286	2.6321	0.17227	1.0094	0.29	3.0386	-0.0592	0.0182	-0.0073	-0.0462	0.0165	0.9585
22.8399	11.9395	732.4778	54.3581	-272.0182	-41.5063	681.9398	-0.32709	2.1179	0.095957	0.81236	0.42928	2.4281	-0.0592	0.0182	-0.0073	-0.0462	0.0165	0.9585
22.8521	13.4759	736.7027	55.458	-272.4357	-41.5938	682.5867	-0.58043	1.2438	0.0038053	0.46636	0.58588	1.3997	-0.0592	0.0182	-0.0073	-0.0462	0.0165	0.9585
22.8644	15.5967	741.3782	56.6582	-273.0488	-41.6045	683.375	-0.81235	-0.058692	-0.10371	-0.058372	0.74978	-0.11513	-0.0592	0.0182	-0.0073	-0.0462	0.0165	0.9585
22.8766	18.2965	746.531	57.852	-273.89	-41.4383	684.3419	-0.94576	-1.8283	-0.21515	-0.77724	0.88513	-2.1524	-0.0592	0.0182	-0.0073	-0.0462	0.0165	0.9585
22.8888	21.5171	752.0575	58.9538	-274.9293	-41.0298	685.4429	-0.90915	-4.013	-0.32106	-1.6712	0.95121	-4.6443	-0.0592	0.0182	-0.0073	-0.0462	0.0165	0.9585
22.901	25.1723	757.6088	59.883	-276.0397	-40.3279	686.4186	-0.59468	-6.4184	-0.39159	-2.6612	0.87587	-7.3656	-0.0592	0.0182	-0.0073	-0.0462	0.0165	0.9585
22.9132	29.1007	762.6816	60.6572	-277.0258	-39.3909	686.8872	0.11619	-8.6148	-0.39183	-3.5727	0.57317	-9.8196	-0.0592	0.0182	-0.0073	-0.0462	0.0165	0.9585
22.9254	33.1644	766.8246	61.3326	-277.7079	-38.3068	686.4955	1.3476	-9.8697	-0.26437	-4.1038	-0.069672	-11.1672	-0.0592	0.0182	-0.0073	-0.0462	0.0165	0.9585
22.9376	37.2416	769.7996	62.0142	-277.9863	-37.203	685.0715	3.2028	-9.04	0.058498	-3.7864	-1.1669	-10.1011	-0.0592	0.0182	-0.0073	-0.0462	0.0165	0.9585
22.9499	41.2764	771.5568	62.7522	-277.8437	-36.1407	682.5635	5.7152	-4.5487	0.66529	-1.9739	-2.8256	-4.828	-0.0592	0.0182	-0.0073	-0.0462	0.0165	0.9585
22.9621	45.2523	772.0573	63.5469	-277.279	-35.1281	678.9487	8.7777	5.5708	1.6461	2.1402	-5.096	6.8863	-0.0592	0.0182	-0.0073	-0.0462	0.0165	0.9585
22.9743	49.1983	771.027	64.2979	-276.2167	-34.0785	674.0112	12.0654	23.5071	3.0727	9.4531	-7.9121	27.53	-0.0592	0.0182	-0.0073	-0.0462	0.0165	0.9585
22.9865	53.0972	767.757	64.8394	-274.4261	-32.8701	667.1927	14.911	51.2795	4.9681	20.7937	-11.0112	59.3971	-0.0592	0.0182	-0.0073	-0.0462	0.0165	0.9585
22.9987	56.8941	761.0336	64.9051	-271.4967	-31.3141	657.5188	16.1931	90.0662	7.2506	36.6479	-13.832	103.8201	-0.0592	0.0182	-0.0073	-0.0462	0.0165	0.9585
23.0109	60.429	749.218	64.1862	-266.8624	-29.227	643.6933	14.2613	139.1951	9.6608	56.7473	-15.4139	160.0174	-0.0592	0.0182	-0.0073	-0.0462	0.0165	0.9585
23.0231	63.4355	730.4276	62.3746	-259.8679	-26.4719	624.2289	7.6542	195.4201	11.6418	79.7442	-14.5527	224.3156	-0.0592	0.0182	-0.0073	-0.0462	0.0165	0.9585
23.0354	65.5456	702.908	59.2378	-249.8958	-23.0144	597.7726	-3.3233	252.8391	12.1727	103.1529	-10.2328	290.0031	-0.0592	0.0182	-0.0073	-0.0462	0.0165	0.9585
